<svg xmlns="http://www.w3.org/2000/svg" viewBox="0 0 49.4 49.4"><defs><style>.cls-1{fill:#899aa7;}</style></defs><title>facebook</title><g id="Layer_2" data-name="Layer 2"><g id="Layer_2-2" data-name="Layer 2"><path id="facebook_icon" data-name="facebook icon" class="cls-1" d="M40.07,49.4H9.33A9.33,9.33,0,0,1,0,40.07V9.33A9.33,9.33,0,0,1,9.33,0H40.07A9.33,9.33,0,0,1,49.4,9.33V40.07A9.33,9.33,0,0,1,40.07,49.4Zm-3-30.93V14.35c0-1.41,1.05-1.6,3.1-1.6H43V5.26H34.9s-7.12.47-7,6.93v6.28h-4.4v7.21h4.59v20.7h8.8V25.68H43v-7.2h-5.9Z"/></g></g></svg>