<svg xmlns="http://www.w3.org/2000/svg" viewBox="0 0 49.4 49.4"><defs><style>.cls-1{fill:#899aa7;}</style></defs><title>github</title><g id="Layer_2" data-name="Layer 2"><g id="Layer_2-2" data-name="Layer 2"><path id="github_icon" data-name="github icon" class="cls-1" d="M40.07,49.4H9.33A9.33,9.33,0,0,1,0,40.07V9.33A9.33,9.33,0,0,1,9.33,0H40.07A9.33,9.33,0,0,1,49.4,9.33V40.07A9.33,9.33,0,0,1,40.07,49.4Zm-8,0a3.77,3.77,0,0,0-.9-1.39V40.39a5.57,5.57,0,0,0-1.3-4c15.24-2.54,11.25-18.7,8.45-19.07,1-3.63.31-5.92-.08-6.8a1,1,0,0,0-.72-.58c-2.1-.26-6.5,2.88-6.5,2.88a23.44,23.44,0,0,0-12.5,0S14.1,9.73,12,10a1,1,0,0,0-.72.58c-.39.88-1.1,3.17-.09,6.8-2.79.37-6.78,16.53,8.46,19.07a5.2,5.2,0,0,0-1.26,3H14.8a1.71,1.71,0,0,1-1.37-.68c-2-2.78-5.09-5.4-6.89-4.07a.42.42,0,0,0,0,.67,14.27,14.27,0,0,1,3.79,5.3l0,.07a4.39,4.39,0,0,0,4,2.39h4V48a3.77,3.77,0,0,0-.9,1.39"/></g></g></svg>