<svg xmlns="http://www.w3.org/2000/svg" viewBox="0 0 49.4 49.4"><defs><style>.cls-1{fill:#899aa7;}</style></defs><title>linkedin</title><g id="Layer_2" data-name="Layer 2"><g id="Layer_2-2" data-name="Layer 2"><path id="linkedin_icon" data-name="linkedin icon" class="cls-1" d="M40.07,49.4H9.33A9.33,9.33,0,0,1,0,40.07V9.33A9.33,9.33,0,0,1,9.33,0H40.07A9.33,9.33,0,0,1,49.4,9.33V40.07A9.33,9.33,0,0,1,40.07,49.4ZM26.73,20.84V18.67a.19.19,0,0,0-.2-.19H19.2a.18.18,0,0,0-.19.19V41.36a.18.18,0,0,0,.19.19h7.33a.19.19,0,0,0,.2-.19V28.46a3.55,3.55,0,0,1,1.19-2.73,3.33,3.33,0,0,1,3.78-.67,3.84,3.84,0,0,1,2.17,3.55V41.36a.19.19,0,0,0,.19.19h7.88a.19.19,0,0,0,.19-.19V28.56a14.3,14.3,0,0,0-.56-4.16C39.94,17.56,30.8,15.76,26.73,20.84ZM15.06,18.48H7.35V41.55h7.71Zm-4-10.33a3.9,3.9,0,0,0-4,3.83,3.9,3.9,0,0,0,4,3.82,3.89,3.89,0,0,0,4-3.82A3.9,3.9,0,0,0,11.1,8.15Z"/></g></g></svg>