<svg xmlns="http://www.w3.org/2000/svg" viewBox="0 0 49.4 49.4"><defs><style>.cls-1{fill:#899aa7;}</style></defs><title>share</title><g id="Layer_2" data-name="Layer 2"><g id="Layer_2-2" data-name="Layer 2"><path id="share_icon" data-name="share icon" class="cls-1" d="M40.07,49.4H9.33A9.33,9.33,0,0,1,0,40.07V9.33A9.33,9.33,0,0,1,9.33,0H40.07A9.33,9.33,0,0,1,49.4,9.33V40.07A9.33,9.33,0,0,1,40.07,49.4ZM11.71,19a5,5,0,1,0,5,5A5,5,0,0,0,11.71,19Zm13,0a5,5,0,1,0,5,5A5,5,0,0,0,24.7,19Zm13,0a5,5,0,1,0,5,5A5,5,0,0,0,37.69,19Z"/></g></g></svg>