<svg xmlns="http://www.w3.org/2000/svg" viewBox="0 0 49.4 49.4"><defs><style>.cls-1{fill:#899aa7;}</style></defs><title>twitter</title><g id="Layer_2" data-name="Layer 2"><g id="Layer_2-2" data-name="Layer 2"><path id="twitter_icon" data-name="twitter icon" class="cls-1" d="M40.07,49.4H9.33A9.33,9.33,0,0,1,0,40.07V9.33A9.33,9.33,0,0,1,9.33,0H40.07A9.33,9.33,0,0,1,49.4,9.33V40.07A9.33,9.33,0,0,1,40.07,49.4Zm1.12-34a7.67,7.67,0,0,1-3.25,1.19s2.46-1.78,2.46-4a6.8,6.8,0,0,1-4.5,1.69c-1-3.37-12.78-4.64-11.91,6.62a22.12,22.12,0,0,1-13.43-7S7.42,17.88,12,22.67a7.32,7.32,0,0,1-3-.88,7.59,7.59,0,0,0,5.55,7h-3A9.24,9.24,0,0,0,18.24,34s-5.08,2.57-9.84,2.52c3.75,4,29.71,6.82,29.44-17.43C37.84,19.13,41.21,17.19,41.19,15.35Z"/></g></g></svg>